<svg width="28" height="28" viewBox="0 0 28 28" fill="none" xmlns="http://www.w3.org/2000/svg">
<path d="M8.925 15.1083L14.8167 21C15.0306 21.2139 15.1278 21.4764 15.1083 21.7875C15.1083 22.0792 15.0014 22.3319 14.7875 22.5458C14.5542 22.7597 14.2917 22.8764 14 22.8958C13.7083 22.8958 13.4458 22.7792 13.2125 22.5458L5.45417 14.7875C5.3375 14.6708 5.25 14.5542 5.19167 14.4375C5.15278 14.3014 5.13333 14.1556 5.13333 14C5.13333 13.8444 5.15278 13.7083 5.19167 13.5917C5.25 13.4556 5.3375 13.3292 5.45417 13.2125L13.2125 5.45417C13.4264 5.24028 13.6792 5.13333 13.9708 5.13333C14.2819 5.13333 14.5542 5.24028 14.7875 5.45417C15.0014 5.66805 15.1083 5.93055 15.1083 6.24166C15.1083 6.55278 15.0014 6.81528 14.7875 7.02917L8.925 12.8917H22.225C22.5361 12.8917 22.7986 12.9986 23.0125 13.2125C23.2264 13.4264 23.3333 13.6889 23.3333 14C23.3333 14.3111 23.2264 14.5736 23.0125 14.7875C22.7986 15.0014 22.5361 15.1083 22.225 15.1083H8.925Z" fill="#7159E9"/>
</svg>
