<svg width="28" height="28" viewBox="0 0 28 28" fill="none" xmlns="http://www.w3.org/2000/svg">
<g clip-path="url(#clip0_5180_20408)">
<path d="M20.9983 5.84375C21.3077 5.84375 21.6044 5.96667 21.8232 6.18546C22.042 6.40425 22.1649 6.701 22.1649 7.01042V16.3438C22.1649 16.6532 22.042 16.9499 21.8232 17.1687C21.6044 17.3875 21.3077 17.5104 20.9983 17.5104C20.6888 17.5104 20.3921 17.3875 20.1733 17.1687C19.9545 16.9499 19.8316 16.6532 19.8316 16.3438V9.82675L8.22326 21.4351C8.00322 21.6476 7.70852 21.7652 7.40262 21.7625C7.09673 21.7599 6.80411 21.6372 6.5878 21.4209C6.37149 21.2046 6.2488 20.9119 6.24614 20.6061C6.24348 20.3002 6.36107 20.0055 6.57359 19.7854L18.1819 8.17708H11.6649C11.3555 8.17708 11.0588 8.05417 10.84 7.83537C10.6212 7.61658 10.4983 7.31984 10.4983 7.01042C10.4983 6.701 10.6212 6.40425 10.84 6.18546C11.0588 5.96667 11.3555 5.84375 11.6649 5.84375H20.9983Z" fill="#7159E9"/>
</g>
<defs>
<clipPath id="clip0_5180_20408">
<rect width="28" height="28" fill="white"/>
</clipPath>
</defs>
</svg>
