<svg width="28" height="28" viewBox="0 0 28 28" fill="none" xmlns="http://www.w3.org/2000/svg">
<path d="M19.075 15.1083H5.775C5.46389 15.1083 5.20139 15.0014 4.9875 14.7875C4.77361 14.5736 4.66667 14.3111 4.66667 14C4.66667 13.6889 4.77361 13.4264 4.9875 13.2125C5.20139 12.9986 5.46389 12.8917 5.775 12.8917H19.075L13.1833 7C12.9694 6.78611 12.8625 6.53333 12.8625 6.24166C12.8819 5.93055 12.9986 5.66805 13.2125 5.45417C13.4458 5.24028 13.7083 5.13333 14 5.13333C14.2917 5.11389 14.5542 5.22083 14.7875 5.45417L22.5458 13.2125C22.6625 13.3292 22.7403 13.4556 22.7792 13.5917C22.8375 13.7083 22.8667 13.8444 22.8667 14C22.8667 14.1556 22.8375 14.3014 22.7792 14.4375C22.7403 14.5542 22.6625 14.6708 22.5458 14.7875L14.7875 22.5458C14.5736 22.7597 14.3111 22.8667 14 22.8667C13.7083 22.8667 13.4458 22.7597 13.2125 22.5458C12.9986 22.3319 12.8917 22.0694 12.8917 21.7583C12.8917 21.4472 12.9986 21.1847 13.2125 20.9708L19.075 15.1083Z" fill="#7159E9"/>
</svg>
